<svg width="20" height="20" viewBox="0 0 20 20" fill="none" xmlns="http://www.w3.org/2000/svg">
<g id="material-symbols:arrow-back-ios-new-rounded">
<path id="Vector" d="M12.6041 17.5834L5.58329 10.5834C5.49996 10.5001 5.44107 10.4098 5.40663 10.3126C5.37163 10.2154 5.35413 10.1112 5.35413 10.0001C5.35413 9.88897 5.37163 9.7848 5.40663 9.68758C5.44107 9.59036 5.49996 9.50008 5.58329 9.41675L12.6041 2.39591C12.7986 2.20147 13.0416 2.10425 13.3333 2.10425C13.625 2.10425 13.875 2.20841 14.0833 2.41675C14.2916 2.62508 14.3958 2.86814 14.3958 3.14591C14.3958 3.42369 14.2916 3.66675 14.0833 3.87508L7.95829 10.0001L14.0833 16.1251C14.2777 16.3195 14.375 16.559 14.375 16.8434C14.375 17.1284 14.2708 17.3751 14.0625 17.5834C13.8541 17.7917 13.6111 17.8959 13.3333 17.8959C13.0555 17.8959 12.8125 17.7917 12.6041 17.5834Z" fill="black"/>
</g>
</svg>
