<svg width="18" height="18" viewBox="0 0 18 18" fill="none" xmlns="http://www.w3.org/2000/svg">
<g id="ant-design:setting-outlined">
<path id="Vector" d="M16.2562 10.9986L15.1049 10.0142C15.1594 9.68022 15.1875 9.33921 15.1875 8.99819C15.1875 8.65718 15.1594 8.31616 15.1049 7.98218L16.2562 6.9978C16.3431 6.92346 16.4052 6.82444 16.4344 6.71391C16.4636 6.60339 16.4585 6.48659 16.4197 6.37905L16.4039 6.33335C16.0869 5.44746 15.6123 4.62622 15.0029 3.90933L14.9713 3.87241C14.8973 3.78549 14.7988 3.72301 14.6887 3.6932C14.5785 3.66339 14.4619 3.66765 14.3543 3.70542L12.9252 4.21343C12.3978 3.78101 11.809 3.43999 11.1726 3.20093L10.8967 1.70679C10.8758 1.59436 10.8213 1.49093 10.7403 1.41024C10.6593 1.32955 10.5556 1.27541 10.4431 1.25503L10.3957 1.24624C9.47986 1.08101 8.51658 1.08101 7.60076 1.24624L7.5533 1.25503C7.44079 1.27541 7.33715 1.32955 7.25615 1.41024C7.17514 1.49093 7.12061 1.59436 7.09978 1.70679L6.82205 3.20796C6.1908 3.44707 5.60295 3.78791 5.08182 4.21694L3.64217 3.70542C3.53453 3.66735 3.41785 3.66293 3.30765 3.69276C3.19744 3.72259 3.09892 3.78525 3.02517 3.87241L2.99353 3.90933C2.38488 4.62673 1.91033 5.44783 1.59256 6.33335L1.57674 6.37905C1.49764 6.59878 1.56267 6.84487 1.74021 6.9978L2.90564 7.99272C2.85115 8.32319 2.82478 8.66069 2.82478 8.99644C2.82478 9.33394 2.85115 9.67144 2.90564 10.0001L1.74021 10.9951C1.65337 11.0694 1.59122 11.1684 1.56201 11.279C1.53281 11.3895 1.53795 11.5063 1.57674 11.6138L1.59256 11.6595C1.91072 12.5455 2.38182 13.3628 2.99353 14.0835L3.02517 14.1205C3.0991 14.2074 3.19762 14.2699 3.30776 14.2997C3.41791 14.3295 3.53449 14.3252 3.64217 14.2875L5.08182 13.7759C5.60564 14.2066 6.19099 14.5476 6.82205 14.7849L7.09978 16.2861C7.12061 16.3985 7.17514 16.5019 7.25615 16.5826C7.33715 16.6633 7.44079 16.7175 7.5533 16.7378L7.60076 16.7466C8.525 16.9128 9.47145 16.9128 10.3957 16.7466L10.4431 16.7378C10.5556 16.7175 10.6593 16.6633 10.7403 16.5826C10.8213 16.5019 10.8758 16.3985 10.8967 16.2861L11.1726 14.7919C11.8087 14.5535 12.4009 14.2114 12.9252 13.7794L14.3543 14.2875C14.4619 14.3255 14.5786 14.3299 14.6888 14.3001C14.799 14.2703 14.8975 14.2076 14.9713 14.1205L15.0029 14.0835C15.6146 13.3611 16.0857 12.5455 16.4039 11.6595L16.4197 11.6138C16.4988 11.3976 16.4338 11.1515 16.2562 10.9986V10.9986ZM13.8568 8.1896C13.9008 8.45503 13.9236 8.72749 13.9236 8.99995C13.9236 9.27241 13.9008 9.54487 13.8568 9.8103L13.7408 10.5152L15.0539 11.6384C14.8548 12.097 14.6036 12.5311 14.3051 12.9322L12.6738 12.3539L12.1219 12.8074C11.7017 13.1519 11.2342 13.4226 10.7279 13.6125L10.0582 13.8638L9.74353 15.5689C9.24707 15.6251 8.74585 15.6251 8.24939 15.5689L7.93474 13.8603L7.27029 13.6054C6.76932 13.4156 6.30349 13.1449 5.88689 12.8021L5.33494 12.3468L3.69314 12.9304C3.39432 12.5279 3.14471 12.0937 2.94432 11.6367L4.27146 10.5029L4.15721 9.79976C4.11502 9.53784 4.09217 9.26714 4.09217 8.99995C4.09217 8.73101 4.11326 8.46206 4.15721 8.20015L4.27146 7.49702L2.94432 6.36323C3.14295 5.90444 3.39432 5.47202 3.69314 5.06948L5.33494 5.65308L5.88689 5.1978C6.30349 4.85503 6.76932 4.58433 7.27029 4.39448L7.9365 4.14312L8.25115 2.43452C8.7451 2.37827 9.24959 2.37827 9.74529 2.43452L10.0599 4.1396L10.7297 4.39097C11.2342 4.58081 11.7035 4.85151 12.1236 5.19604L12.6756 5.64956L14.3068 5.07124C14.6056 5.47378 14.8553 5.90796 15.0556 6.36499L13.7426 7.48823L13.8568 8.1896ZM8.99998 5.73042C7.29139 5.73042 5.90623 7.11558 5.90623 8.82417C5.90623 10.5328 7.29139 11.9179 8.99998 11.9179C10.7086 11.9179 12.0937 10.5328 12.0937 8.82417C12.0937 7.11558 10.7086 5.73042 8.99998 5.73042ZM10.3922 10.2164C10.2096 10.3995 9.99257 10.5447 9.75364 10.6436C9.51471 10.7426 9.25858 10.7933 8.99998 10.7929C8.47439 10.7929 7.98045 10.5873 7.60779 10.2164C7.42467 10.0338 7.27946 9.81676 7.18051 9.57783C7.08156 9.33891 7.03083 9.08277 7.03123 8.82417C7.03123 8.29858 7.23689 7.80464 7.60779 7.43198C7.98045 7.05933 8.47439 6.85542 8.99998 6.85542C9.52556 6.85542 10.0195 7.05933 10.3922 7.43198C10.5753 7.61458 10.7205 7.83158 10.8195 8.07051C10.9184 8.30943 10.9691 8.56557 10.9687 8.82417C10.9687 9.34976 10.7631 9.8437 10.3922 10.2164Z" fill="black"/>
</g>
</svg>
