<svg width="12" height="16" viewBox="0 0 12 16" fill="none" xmlns="http://www.w3.org/2000/svg">
<path d="M5.4187 6.06865C5.5032 5.98415 5.55067 5.86955 5.55067 5.75005C5.55067 5.63055 5.5032 5.51595 5.4187 5.43145C5.3342 5.34695 5.2196 5.29948 5.1001 5.29948C4.9806 5.29948 4.866 5.34695 4.7815 5.43145L3.5107 6.70225L3.1534 6.37645C3.06462 6.30057 2.94982 6.26217 2.83326 6.26938C2.71669 6.27658 2.6075 6.32882 2.52874 6.41506C2.44998 6.50129 2.40784 6.61477 2.41121 6.73151C2.41458 6.84825 2.4632 6.9591 2.5468 7.04065L3.2218 7.65715C3.30732 7.73502 3.41955 7.77696 3.53518 7.77428C3.65081 7.7716 3.76097 7.7245 3.8428 7.64275L5.4178 6.06775L5.4187 6.06865ZM5.4187 9.93145C5.4606 9.97325 5.49385 10.0229 5.51654 10.0776C5.53922 10.1322 5.5509 10.1909 5.5509 10.25C5.5509 10.3092 5.53922 10.3678 5.51654 10.4225C5.49385 10.4772 5.4606 10.5268 5.4187 10.5686L3.8437 12.1436C3.76171 12.2255 3.6513 12.2726 3.53546 12.2752C3.41961 12.2777 3.30726 12.2354 3.2218 12.1571L2.5468 11.5406C2.4632 11.4591 2.41458 11.3482 2.41121 11.2315C2.40784 11.1148 2.44998 11.0013 2.52874 10.9151C2.6075 10.8288 2.71669 10.7766 2.83326 10.7694C2.94982 10.7622 3.06462 10.8006 3.1534 10.8764L3.5107 11.2031L4.7815 9.93145C4.8233 9.88954 4.87296 9.85629 4.92763 9.83361C4.9823 9.81092 5.04091 9.79924 5.1001 9.79924C5.15929 9.79924 5.2179 9.81092 5.27257 9.83361C5.32724 9.85629 5.3769 9.88954 5.4187 9.93145ZM6.9001 10.475C6.78075 10.475 6.66629 10.5225 6.5819 10.6069C6.49751 10.6912 6.4501 10.8057 6.4501 10.925C6.4501 11.0444 6.49751 11.1589 6.5819 11.2432C6.66629 11.3276 6.78075 11.375 6.9001 11.375H9.1501C9.26945 11.375 9.38391 11.3276 9.4683 11.2432C9.55269 11.1589 9.6001 11.0444 9.6001 10.925C9.6001 10.8057 9.55269 10.6912 9.4683 10.6069C9.38391 10.5225 9.26945 10.475 9.1501 10.475H6.9001ZM6.4501 6.42505C6.4501 6.3057 6.49751 6.19124 6.5819 6.10685C6.66629 6.02246 6.78075 5.97505 6.9001 5.97505H9.1501C9.26945 5.97505 9.38391 6.02246 9.4683 6.10685C9.55269 6.19124 9.6001 6.3057 9.6001 6.42505C9.6001 6.5444 9.55269 6.65886 9.4683 6.74325C9.38391 6.82764 9.26945 6.87505 9.1501 6.87505H6.9001C6.78075 6.87505 6.66629 6.82764 6.5819 6.74325C6.49751 6.65886 6.4501 6.5444 6.4501 6.42505ZM4.6501 0.800049C4.3708 0.799903 4.09834 0.886384 3.87026 1.04757C3.64217 1.20876 3.4697 1.43673 3.3766 1.70005H1.9501C1.59206 1.70005 1.24868 1.84228 0.995503 2.09545C0.742329 2.34863 0.600098 2.69201 0.600098 3.05005V13.85C0.600098 14.2081 0.742329 14.5515 0.995503 14.8046C1.24868 15.0578 1.59206 15.2 1.9501 15.2H10.0501C10.4081 15.2 10.7515 15.0578 11.0047 14.8046C11.2579 14.5515 11.4001 14.2081 11.4001 13.85V3.05005C11.4001 2.69201 11.2579 2.34863 11.0047 2.09545C10.7515 1.84228 10.4081 1.70005 10.0501 1.70005H8.6236C8.5305 1.43673 8.35802 1.20876 8.12994 1.04757C7.90185 0.886384 7.62939 0.799903 7.3501 0.800049H4.6501ZM4.2001 2.15005C4.2001 2.0307 4.24751 1.91624 4.3319 1.83185C4.41629 1.74746 4.53075 1.70005 4.6501 1.70005H7.3501C7.46945 1.70005 7.5839 1.74746 7.6683 1.83185C7.75269 1.91624 7.8001 2.0307 7.8001 2.15005C7.8001 2.2694 7.75269 2.38386 7.6683 2.46825C7.5839 2.55264 7.46945 2.60005 7.3501 2.60005H4.6501C4.53075 2.60005 4.41629 2.55264 4.3319 2.46825C4.24751 2.38386 4.2001 2.2694 4.2001 2.15005ZM1.9501 2.60005H3.3766C3.4697 2.86337 3.64217 3.09133 3.87026 3.25252C4.09834 3.41371 4.3708 3.5002 4.6501 3.50005H7.3501C7.62939 3.5002 7.90185 3.41371 8.12994 3.25252C8.35802 3.09133 8.5305 2.86337 8.6236 2.60005H10.0501C10.1694 2.60005 10.2839 2.64746 10.3683 2.73185C10.4527 2.81624 10.5001 2.9307 10.5001 3.05005V13.85C10.5001 13.9694 10.4527 14.0839 10.3683 14.1682C10.2839 14.2526 10.1694 14.3 10.0501 14.3H1.9501C1.83075 14.3 1.71629 14.2526 1.6319 14.1682C1.54751 14.0839 1.5001 13.9694 1.5001 13.85V3.05005C1.5001 2.9307 1.54751 2.81624 1.6319 2.73185C1.71629 2.64746 1.83075 2.60005 1.9501 2.60005Z" fill="white"/>
</svg>
