<svg width="12" height="8" viewBox="0 0 12 8" fill="none" xmlns="http://www.w3.org/2000/svg">
<path d="M6 1.25C6.91937 1.24694 7.82094 1.50339 8.60106 1.98986C9.38118 2.47633 10.0082 3.17308 10.41 4C9.585 5.685 7.9 6.75 6 6.75C4.1 6.75 2.415 5.685 1.59 4C1.99181 3.17308 2.61882 2.47633 3.39894 1.98986C4.17906 1.50339 5.08063 1.24694 6 1.25ZM6 0.25C3.5 0.25 1.365 1.805 0.5 4C1.365 6.195 3.5 7.75 6 7.75C8.5 7.75 10.635 6.195 11.5 4C10.635 1.805 8.5 0.25 6 0.25ZM6 2.75C6.33152 2.75 6.64946 2.8817 6.88388 3.11612C7.1183 3.35054 7.25 3.66848 7.25 4C7.25 4.33152 7.1183 4.64946 6.88388 4.88388C6.64946 5.1183 6.33152 5.25 6 5.25C5.66848 5.25 5.35054 5.1183 5.11612 4.88388C4.8817 4.64946 4.75 4.33152 4.75 4C4.75 3.66848 4.8817 3.35054 5.11612 3.11612C5.35054 2.8817 5.66848 2.75 6 2.75ZM6 1.75C4.76 1.75 3.75 2.76 3.75 4C3.75 5.24 4.76 6.25 6 6.25C7.24 6.25 8.25 5.24 8.25 4C8.25 2.76 7.24 1.75 6 1.75Z" fill="#656464"/>
</svg>
