<svg width="18" height="18" viewBox="0 0 18 18" fill="none" xmlns="http://www.w3.org/2000/svg">
<g id="Group 429">
<g id="material-symbols:work-outline">
<path id="Vector" d="M3 15.75C2.5875 15.75 2.2345 15.6033 1.941 15.3098C1.647 15.0158 1.5 14.6625 1.5 14.25V6C1.5 5.5875 1.647 5.2345 1.941 4.941C2.2345 4.647 2.5875 4.5 3 4.5H6V3C6 2.5875 6.147 2.23425 6.441 1.94025C6.7345 1.64675 7.0875 1.5 7.5 1.5H10.5C10.9125 1.5 11.2658 1.64675 11.5598 1.94025C11.8533 2.23425 12 2.5875 12 3V4.5H15C15.4125 4.5 15.7658 4.647 16.0598 4.941C16.3533 5.2345 16.5 5.5875 16.5 6V14.25C16.5 14.6625 16.3533 15.0158 16.0598 15.3098C15.7658 15.6033 15.4125 15.75 15 15.75H3ZM3 14.25H15V6H3V14.25ZM7.5 4.5H10.5V3H7.5V4.5ZM3 14.25V6V14.25Z" fill="black"/>
</g>
</g>
</svg>
