<svg width="18" height="18" viewBox="0 0 18 18" fill="none" xmlns="http://www.w3.org/2000/svg">
<g id="ic:round-plus">
<path id="Vector" d="M13.5 9.74854H9.75V13.4985C9.75 13.6974 9.67098 13.8882 9.53033 14.0289C9.38968 14.1695 9.19891 14.2485 9 14.2485C8.80109 14.2485 8.61032 14.1695 8.46967 14.0289C8.32902 13.8882 8.25 13.6974 8.25 13.4985V9.74854H4.5C4.30109 9.74854 4.11032 9.66952 3.96967 9.52887C3.82902 9.38821 3.75 9.19745 3.75 8.99854C3.75 8.79962 3.82902 8.60886 3.96967 8.46821C4.11032 8.32755 4.30109 8.24854 4.5 8.24854H8.25V4.49854C8.25 4.29962 8.32902 4.10886 8.46967 3.9682C8.61032 3.82755 8.80109 3.74854 9 3.74854C9.19891 3.74854 9.38968 3.82755 9.53033 3.9682C9.67098 4.10886 9.75 4.29962 9.75 4.49854V8.24854H13.5C13.6989 8.24854 13.8897 8.32755 14.0303 8.46821C14.171 8.60886 14.25 8.79962 14.25 8.99854C14.25 9.19745 14.171 9.38821 14.0303 9.52887C13.8897 9.66952 13.6989 9.74854 13.5 9.74854V9.74854Z" fill="white"/>
</g>
</svg>
