<svg width="18" height="18" viewBox="0 0 18 18" fill="none" xmlns="http://www.w3.org/2000/svg">
<g id="icon-park-outline:people">
<path id="Vector" d="M9 7.5C9.34472 7.5 9.68606 7.4321 10.0045 7.30018C10.323 7.16827 10.6124 6.97491 10.8562 6.73116C11.0999 6.4874 11.2933 6.19802 11.4252 5.87954C11.5571 5.56106 11.625 5.21972 11.625 4.875C11.625 4.53028 11.5571 4.18894 11.4252 3.87046C11.2933 3.55198 11.0999 3.2626 10.8562 3.01884C10.6124 2.77509 10.323 2.58173 10.0045 2.44982C9.68606 2.3179 9.34472 2.25 9 2.25C8.30381 2.25 7.63613 2.52656 7.14384 3.01884C6.65156 3.51113 6.375 4.17881 6.375 4.875C6.375 5.57119 6.65156 6.23887 7.14384 6.73116C7.63613 7.22344 8.30381 7.5 9 7.5V7.5ZM2.25 15.3V15.75H15.75V15.3C15.75 13.62 15.75 12.78 15.423 12.138C15.1354 11.5735 14.6765 11.1146 14.112 10.827C13.47 10.5 12.63 10.5 10.95 10.5H7.05C5.37 10.5 4.53 10.5 3.888 10.827C3.32354 11.1146 2.86462 11.5735 2.577 12.138C2.25 12.78 2.25 13.62 2.25 15.3Z" stroke="white" stroke-width="1.5" stroke-linecap="round" stroke-linejoin="round"/>
</g>
</svg>
