<svg width="18" height="18" viewBox="0 0 18 18" fill="none" xmlns="http://www.w3.org/2000/svg">
<g id="material-symbols:featured-play-list-outline">
<path id="Vector" d="M4.5 9.75H11.25V8.25H4.5V9.75ZM4.5 7.5H11.25V6H4.5V7.5ZM3 15C2.5875 15 2.2345 14.8533 1.941 14.5598C1.647 14.2658 1.5 13.9125 1.5 13.5V4.5C1.5 4.0875 1.647 3.7345 1.941 3.441C2.2345 3.147 2.5875 3 3 3H15C15.4125 3 15.7658 3.147 16.0598 3.441C16.3533 3.7345 16.5 4.0875 16.5 4.5V13.5C16.5 13.9125 16.3533 14.2658 16.0598 14.5598C15.7658 14.8533 15.4125 15 15 15H3ZM3 13.5H15V4.5H3V13.5ZM3 13.5V4.5V13.5Z" fill="black"/>
</g>
</svg>
