<svg width="20" height="20" viewBox="0 0 20 20" fill="none" xmlns="http://www.w3.org/2000/svg">
<g id="ri:briefcase-3-line">
<path id="Vector" d="M5.83329 4.16659V1.66659C5.83329 1.44557 5.92109 1.23361 6.07737 1.07733C6.23365 0.921049 6.44561 0.833252 6.66663 0.833252H13.3333C13.5543 0.833252 13.7663 0.921049 13.9225 1.07733C14.0788 1.23361 14.1666 1.44557 14.1666 1.66659V4.16659H17.5C17.721 4.16659 17.9329 4.25438 18.0892 4.41066C18.2455 4.56694 18.3333 4.7789 18.3333 4.99992V16.6666C18.3333 16.8876 18.2455 17.0996 18.0892 17.2558C17.9329 17.4121 17.721 17.4999 17.5 17.4999H2.49996C2.27895 17.4999 2.06698 17.4121 1.9107 17.2558C1.75442 17.0996 1.66663 16.8876 1.66663 16.6666V4.99992C1.66663 4.7789 1.75442 4.56694 1.9107 4.41066C2.06698 4.25438 2.27895 4.16659 2.49996 4.16659H5.83329ZM12.5 5.83325H7.49996V15.8333H12.5V5.83325ZM5.83329 5.83325H3.33329V15.8333H5.83329V5.83325ZM14.1666 5.83325V15.8333H16.6666V5.83325H14.1666ZM7.49996 2.49992V4.16659H12.5V2.49992H7.49996Z" fill="black"/>
</g>
</svg>
