<svg width="18" height="18" viewBox="0 0 18 18" fill="none" xmlns="http://www.w3.org/2000/svg">
<g id="fluent:people-16-regular">
<path id="Vector" d="M4.5 6.1875C4.5 5.96589 4.54365 5.74646 4.62845 5.54172C4.71326 5.33698 4.83756 5.15096 4.99426 4.99426C5.15096 4.83756 5.33698 4.71326 5.54172 4.62845C5.74646 4.54365 5.96589 4.5 6.1875 4.5C6.40911 4.5 6.62854 4.54365 6.83328 4.62845C7.03802 4.71326 7.22404 4.83756 7.38074 4.99426C7.53744 5.15096 7.66174 5.33698 7.74655 5.54172C7.83135 5.74646 7.875 5.96589 7.875 6.1875C7.875 6.63505 7.69721 7.06428 7.38074 7.38074C7.06428 7.69721 6.63505 7.875 6.1875 7.875C5.73995 7.875 5.31072 7.69721 4.99426 7.38074C4.67779 7.06428 4.5 6.63505 4.5 6.1875V6.1875ZM6.1875 3.375C5.44158 3.375 4.72621 3.67132 4.19876 4.19876C3.67132 4.72621 3.375 5.44158 3.375 6.1875C3.375 6.93342 3.67132 7.64879 4.19876 8.17624C4.72621 8.70368 5.44158 9 6.1875 9C6.93342 9 7.64879 8.70368 8.17624 8.17624C8.70368 7.64879 9 6.93342 9 6.1875C9 5.44158 8.70368 4.72621 8.17624 4.19876C7.64879 3.67132 6.93342 3.375 6.1875 3.375ZM11.8125 6.75C11.8125 6.45163 11.931 6.16548 12.142 5.95451C12.353 5.74353 12.6391 5.625 12.9375 5.625C13.2359 5.625 13.522 5.74353 13.733 5.95451C13.944 6.16548 14.0625 6.45163 14.0625 6.75C14.0625 7.04837 13.944 7.33452 13.733 7.54549C13.522 7.75647 13.2359 7.875 12.9375 7.875C12.6391 7.875 12.353 7.75647 12.142 7.54549C11.931 7.33452 11.8125 7.04837 11.8125 6.75ZM12.9375 4.5C12.3408 4.5 11.7685 4.73705 11.3465 5.15901C10.9246 5.58097 10.6875 6.15326 10.6875 6.75C10.6875 7.34674 10.9246 7.91903 11.3465 8.34099C11.7685 8.76295 12.3408 9 12.9375 9C13.5342 9 14.1065 8.76295 14.5285 8.34099C14.9504 7.91903 15.1875 7.34674 15.1875 6.75C15.1875 6.15326 14.9504 5.58097 14.5285 5.15901C14.1065 4.73705 13.5342 4.5 12.9375 4.5V4.5ZM1.6875 11.8125C1.6875 11.3649 1.86529 10.9357 2.18176 10.6193C2.49822 10.3028 2.92745 10.125 3.375 10.125H9C9.44755 10.125 9.87678 10.3028 10.1932 10.6193C10.5097 10.9357 10.6875 11.3649 10.6875 11.8125V11.9385C10.6863 11.99 10.6826 12.0415 10.6762 12.0926C10.6121 12.638 10.4092 13.1578 10.0867 13.6024C9.47137 14.4517 8.30137 15.1875 6.1875 15.1875C4.07475 15.1875 2.90475 14.4517 2.28712 13.6024C1.96511 13.1577 1.76253 12.6379 1.69875 12.0926C1.69315 12.0414 1.6894 11.99 1.6875 11.9385V11.8125V11.8125ZM2.8125 11.9138V11.9216L2.817 11.9767C2.86057 12.325 2.99136 12.6566 3.19725 12.9409C3.564 13.4449 4.36275 14.0625 6.1875 14.0625C8.01225 14.0625 8.811 13.4449 9.17775 12.9409C9.38364 12.6566 9.51443 12.325 9.558 11.9767C9.56002 11.958 9.56152 11.9393 9.5625 11.9205V11.8125C9.5625 11.6633 9.50324 11.5202 9.39775 11.4148C9.29226 11.3093 9.14918 11.25 9 11.25H3.375C3.22582 11.25 3.08274 11.3093 2.97725 11.4148C2.87176 11.5202 2.8125 11.6633 2.8125 11.8125V11.9138ZM12.9375 14.0625C12.276 14.0625 11.7337 13.9613 11.295 13.7948C11.4754 13.4644 11.6119 13.1119 11.7011 12.7462C12.0026 12.8599 12.4031 12.9375 12.9375 12.9375C14.1964 12.9375 14.7127 12.5077 14.94 12.1882C15.0728 12.0019 15.1571 11.7854 15.1853 11.5583L15.1875 11.5268C15.1863 11.4529 15.1562 11.3826 15.1036 11.3308C15.0509 11.279 14.9801 11.25 14.9062 11.25H11.7562C11.6732 10.842 11.5003 10.4577 11.25 10.125H14.9062C15.6825 10.125 16.3125 10.755 16.3125 11.5312V11.5504C16.3112 11.5914 16.3082 11.6323 16.3035 11.673C16.2558 12.0946 16.1018 12.4973 15.8557 12.843C15.381 13.5079 14.4911 14.0625 12.9375 14.0625V14.0625Z" fill="white"/>
</g>
</svg>
