<svg width="18" height="18" viewBox="0 0 18 18" fill="none" xmlns="http://www.w3.org/2000/svg">
<g id="material-symbols:dashboard-customize-outline-rounded">
<path id="Vector" d="M3 8.25C2.7875 8.25 2.6095 8.178 2.466 8.034C2.322 7.8905 2.25 7.7125 2.25 7.5V3C2.25 2.7875 2.322 2.60925 2.466 2.46525C2.6095 2.32175 2.7875 2.25 3 2.25H7.5C7.7125 2.25 7.89075 2.32175 8.03475 2.46525C8.17825 2.60925 8.25 2.7875 8.25 3V7.5C8.25 7.7125 8.17825 7.8905 8.03475 8.034C7.89075 8.178 7.7125 8.25 7.5 8.25H3ZM3.75 3.75V6.75V3.75ZM10.5 8.25C10.2875 8.25 10.1095 8.178 9.966 8.034C9.822 7.8905 9.75 7.7125 9.75 7.5V3C9.75 2.7875 9.822 2.60925 9.966 2.46525C10.1095 2.32175 10.2875 2.25 10.5 2.25H15C15.2125 2.25 15.3905 2.32175 15.534 2.46525C15.678 2.60925 15.75 2.7875 15.75 3V7.5C15.75 7.7125 15.678 7.8905 15.534 8.034C15.3905 8.178 15.2125 8.25 15 8.25H10.5ZM11.25 3.75V6.75V3.75ZM3 15.75C2.7875 15.75 2.6095 15.678 2.466 15.534C2.322 15.3905 2.25 15.2125 2.25 15V10.5C2.25 10.2875 2.322 10.1092 2.466 9.96525C2.6095 9.82175 2.7875 9.75 3 9.75H7.5C7.7125 9.75 7.89075 9.82175 8.03475 9.96525C8.17825 10.1092 8.25 10.2875 8.25 10.5V15C8.25 15.2125 8.17825 15.3905 8.03475 15.534C7.89075 15.678 7.7125 15.75 7.5 15.75H3ZM3.75 11.25V14.25V11.25ZM12.75 15.75C12.5375 15.75 12.3595 15.678 12.216 15.534C12.072 15.3905 12 15.2125 12 15V13.5H10.4813C10.2688 13.5 10.0937 13.428 9.95625 13.284C9.81875 13.1405 9.75 12.9625 9.75 12.75C9.75 12.5375 9.822 12.3595 9.966 12.216C10.1095 12.072 10.2875 12 10.5 12H12V10.4813C12 10.2688 12.072 10.0937 12.216 9.95625C12.3595 9.81875 12.5375 9.75 12.75 9.75C12.9625 9.75 13.1405 9.82175 13.284 9.96525C13.428 10.1092 13.5 10.2875 13.5 10.5V12H15.0187C15.2312 12 15.4063 12.072 15.5438 12.216C15.6813 12.3595 15.75 12.5375 15.75 12.75C15.75 12.9625 15.678 13.1405 15.534 13.284C15.3905 13.428 15.2125 13.5 15 13.5H13.5V15.0187C13.5 15.2312 13.428 15.4063 13.284 15.5438C13.1405 15.6813 12.9625 15.75 12.75 15.75ZM11.25 3.75V6.75H14.25V3.75H11.25ZM3.75 3.75V6.75H6.75V3.75H3.75ZM3.75 11.25V14.25H6.75V11.25H3.75Z" fill="white"/>
</g>
</svg>
