<svg width="18" height="18" viewBox="0 0 18 18" fill="none" xmlns="http://www.w3.org/2000/svg">
<g id="mi:log-out">
<g id="Group">
<path id="Vector" fill-rule="evenodd" clip-rule="evenodd" d="M8.25 15C8.25 14.8011 8.17098 14.6103 8.03033 14.4697C7.88968 14.329 7.69891 14.25 7.5 14.25H3.75V3.75H7.5C7.69891 3.75 7.88968 3.67098 8.03033 3.53033C8.17098 3.38968 8.25 3.19891 8.25 3C8.25 2.80109 8.17098 2.61032 8.03033 2.46967C7.88968 2.32902 7.69891 2.25 7.5 2.25H3.75C3.35218 2.25 2.97064 2.40804 2.68934 2.68934C2.40804 2.97064 2.25 3.35218 2.25 3.75V14.25C2.25 14.6478 2.40804 15.0294 2.68934 15.3107C2.97064 15.592 3.35218 15.75 3.75 15.75H7.5C7.69891 15.75 7.88968 15.671 8.03033 15.5303C8.17098 15.3897 8.25 15.1989 8.25 15Z" fill="white"/>
<path id="Vector_2" d="M16.2855 9.52506C16.4227 9.38562 16.4997 9.19792 16.5 9.00231V8.99781C16.4996 8.79965 16.4206 8.60974 16.2803 8.46981L13.2803 5.46981C13.2111 5.39818 13.1283 5.34104 13.0368 5.30173C12.9453 5.26243 12.8469 5.24174 12.7473 5.24087C12.6477 5.24001 12.549 5.25898 12.4568 5.29669C12.3646 5.33441 12.2809 5.39009 12.2105 5.46051C12.14 5.53093 12.0843 5.61467 12.0466 5.70685C12.0089 5.79902 11.9899 5.89778 11.9908 5.99736C11.9917 6.09695 12.0124 6.19536 12.0517 6.28686C12.091 6.37837 12.1481 6.46113 12.2197 6.53031L13.9395 8.25006H6.75C6.55109 8.25006 6.36032 8.32908 6.21967 8.46973C6.07902 8.61038 6 8.80115 6 9.00006C6 9.19897 6.07902 9.38974 6.21967 9.53039C6.36032 9.67104 6.55109 9.75006 6.75 9.75006H13.9395L12.2197 11.4698C12.0831 11.6113 12.0075 11.8007 12.0092 11.9974C12.011 12.194 12.0898 12.3821 12.2289 12.5212C12.3679 12.6602 12.5561 12.7391 12.7527 12.7408C12.9493 12.7425 13.1388 12.6669 13.2803 12.5303L16.2803 9.53031L16.2855 9.52506V9.52506Z" fill="white"/>
</g>
</g>
</svg>
